<svg id="svg" version="1.1" xmlns="http://www.w3.org/2000/svg" xmlns:xlink="http://www.w3.org/1999/xlink" width="400" height="140" viewBox="0, 0, 400,140"><g id="svgg"><path id="path0" d="M26.212 36.546 C 26.226 36.750,26.336 36.993,26.458 37.085 C 26.638 37.223,26.630 37.314,26.410 37.585 C 26.263 37.768,26.186 37.828,26.240 37.720 C 26.294 37.612,26.263 37.476,26.169 37.418 C 26.076 37.361,25.999 37.412,25.997 37.532 C 25.996 37.690,25.951 37.682,25.833 37.500 C 25.726 37.333,25.671 37.319,25.669 37.458 C 25.668 37.573,25.587 37.667,25.490 37.667 C 25.393 37.667,25.360 37.592,25.417 37.500 C 25.473 37.408,25.398 37.333,25.249 37.333 C 25.067 37.333,25.007 37.430,25.068 37.625 C 25.219 38.109,24.958 38.301,24.083 38.347 C 22.994 38.405,22.833 38.471,22.833 38.861 C 22.833 39.040,22.908 39.140,23.000 39.083 C 23.308 38.893,23.170 39.081,22.634 39.584 C 22.340 39.859,22.157 39.990,22.227 39.875 C 22.296 39.760,22.282 39.667,22.194 39.667 C 21.921 39.667,21.818 40.197,22.039 40.469 C 22.218 40.689,22.205 40.712,21.958 40.620 C 21.711 40.527,21.667 40.611,21.667 41.167 C 21.667 41.666,21.610 41.801,21.430 41.732 C 21.056 41.589,20.462 42.284,20.596 42.706 C 20.658 42.902,20.682 43.442,20.648 43.906 C 20.566 45.048,20.576 71.534,20.658 72.792 C 20.713 73.621,20.744 73.810,20.825 73.802 C 21.506 73.738,21.667 73.854,21.667 74.407 C 21.667 74.949,21.701 74.983,22.292 75.032 C 22.889 75.081,22.914 75.107,22.862 75.629 C 22.832 75.930,22.869 76.165,22.945 76.151 C 23.678 76.024,24.022 76.183,23.970 76.625 L 23.917 77.083 25.000 77.083 L 26.083 77.083 26.167 77.667 L 26.250 78.250 36.500 78.293 C 43.325 78.322,46.666 78.281,46.500 78.171 C 46.349 78.070,46.328 78.004,46.448 78.003 C 46.558 78.001,46.693 78.075,46.750 78.167 C 46.896 78.403,47.456 78.374,47.556 78.125 C 47.624 77.958,47.643 77.958,47.654 78.125 C 47.661 78.240,47.806 78.333,47.977 78.333 C 48.674 78.333,48.584 80.431,47.880 80.607 C 47.625 80.671,47.403 80.894,47.301 81.189 C 47.154 81.611,47.053 81.667,46.442 81.669 C 46.061 81.670,40.125 81.670,33.250 81.670 C 25.058 81.670,20.836 81.725,21.000 81.832 C 21.202 81.964,21.177 81.995,20.869 81.997 C 20.549 82.000,20.515 82.050,20.655 82.312 C 20.755 82.498,20.766 82.820,20.684 83.108 C 20.484 83.805,20.441 98.667,20.639 98.667 C 20.736 98.667,20.745 98.902,20.662 99.270 C 20.503 99.977,20.589 100.286,20.973 100.388 C 21.224 100.454,21.225 100.463,20.977 100.481 C 20.809 100.493,20.677 100.688,20.632 100.991 C 20.593 101.261,20.622 101.444,20.697 101.398 C 20.772 101.352,20.833 101.391,20.833 101.486 C 20.833 101.835,65.127 101.726,65.218 101.377 C 65.290 101.100,65.296 101.100,65.314 101.375 C 65.331 101.630,65.523 101.667,66.833 101.667 L 68.333 101.667 68.333 101.083 C 68.333 100.445,68.322 100.450,69.708 100.498 C 70.487 100.524,70.500 100.516,70.500 100.012 C 70.500 99.670,70.582 99.500,70.748 99.500 C 71.322 99.500,71.667 98.954,71.667 98.046 C 71.667 97.135,71.648 97.156,72.500 97.099 C 72.829 97.078,72.948 94.337,72.620 94.328 C 72.508 94.325,72.593 94.175,72.809 93.995 C 73.025 93.816,73.280 93.717,73.376 93.777 C 73.474 93.837,73.503 93.806,73.441 93.707 C 73.381 93.609,73.403 93.503,73.490 93.473 C 73.613 93.429,73.752 71.271,73.641 69.417 C 73.615 68.973,73.359 68.667,73.098 68.767 C 72.982 68.812,72.781 68.714,72.652 68.549 C 72.433 68.271,72.439 68.267,72.740 68.500 C 72.919 68.638,73.009 68.659,72.942 68.547 C 72.875 68.435,72.814 67.627,72.806 66.752 C 72.795 65.468,72.740 65.131,72.523 65.009 C 72.374 64.926,72.308 64.803,72.375 64.736 C 72.557 64.554,72.178 64.173,71.915 64.274 C 71.748 64.338,71.673 64.167,71.635 63.639 C 71.587 62.962,71.550 62.913,71.051 62.865 C 70.588 62.820,70.513 62.745,70.468 62.282 C 70.440 61.989,70.323 61.741,70.208 61.729 C 70.094 61.718,69.632 61.699,69.183 61.688 C 68.446 61.669,68.350 61.621,68.203 61.200 C 68.074 60.830,67.942 60.737,67.562 60.747 C 67.299 60.753,67.035 60.691,66.977 60.608 C 66.917 60.523,66.772 60.519,66.644 60.599 C 66.519 60.678,66.275 60.718,66.102 60.690 C 65.860 60.650,65.811 60.709,65.894 60.944 C 65.997 61.239,65.992 61.239,65.766 60.947 C 65.484 60.584,65.335 60.564,65.146 60.861 C 65.038 61.031,65.005 61.034,65.003 60.872 C 65.001 60.705,63.081 60.663,55.625 60.672 L 46.250 60.682 46.092 60.077 C 45.948 59.525,45.888 59.477,45.422 59.531 C 44.583 59.629,44.670 58.456,45.511 58.333 C 45.999 58.262,46.084 58.184,46.091 57.798 C 46.101 57.189,46.165 57.149,47.148 57.141 C 47.617 57.138,48.000 57.062,48.000 56.974 C 48.000 56.886,47.913 56.867,47.808 56.933 C 47.687 57.007,47.660 56.978,47.736 56.856 C 47.802 56.749,47.934 56.709,48.029 56.768 C 48.141 56.837,48.163 56.735,48.090 56.479 C 48.004 56.175,48.019 56.141,48.152 56.333 C 48.248 56.471,48.285 56.715,48.235 56.875 C 48.149 57.151,48.761 57.167,59.499 57.167 C 68.534 57.167,70.829 57.124,70.735 56.958 C 70.641 56.792,70.663 56.792,70.842 56.958 C 70.966 57.073,71.224 57.167,71.417 57.167 C 71.609 57.167,71.868 57.073,71.991 56.958 C 72.171 56.792,72.192 56.792,72.098 56.958 C 72.017 57.102,72.116 57.167,72.417 57.167 C 72.665 57.167,72.809 57.095,72.750 57.000 C 72.693 56.908,72.762 56.833,72.903 56.833 C 73.769 56.833,73.764 56.902,73.708 45.540 L 73.667 37.164 73.188 36.663 L 72.710 36.163 49.449 36.169 L 26.188 36.175 26.212 36.546 M85.147 36.375 C 85.137 36.490,85.111 36.658,85.089 36.750 C 85.068 36.842,85.039 37.015,85.025 37.135 C 85.011 37.256,84.862 37.331,84.692 37.302 C 84.258 37.229,83.851 37.616,83.953 38.006 C 84.024 38.275,83.953 38.334,83.561 38.336 C 82.885 38.339,82.321 38.512,82.427 38.684 C 82.477 38.764,82.388 38.780,82.230 38.719 C 82.007 38.634,81.967 38.674,82.052 38.896 C 82.118 39.068,82.096 39.143,81.998 39.082 C 81.907 39.026,81.833 39.097,81.833 39.240 C 81.833 39.466,81.534 39.584,81.125 39.520 C 81.056 39.509,81.000 39.579,81.000 39.677 C 81.000 39.774,80.913 39.799,80.808 39.734 C 80.702 39.669,80.656 39.683,80.706 39.766 C 80.756 39.849,80.742 40.270,80.676 40.702 C 80.609 41.134,80.615 41.549,80.690 41.623 C 80.764 41.697,80.527 41.730,80.163 41.695 L 79.502 41.632 79.502 70.802 C 79.502 93.907,79.545 99.990,79.709 100.057 C 79.874 100.123,79.874 100.143,79.708 100.154 C 79.243 100.183,79.459 101.483,79.950 101.606 C 80.249 101.682,80.423 101.649,80.470 101.507 C 80.525 101.341,80.572 101.345,80.687 101.523 C 80.809 101.712,80.861 101.708,80.997 101.500 C 81.108 101.331,81.162 101.318,81.164 101.459 C 81.166 101.626,83.481 101.660,92.458 101.626 L 103.750 101.583 103.770 100.750 C 103.781 100.292,103.800 95.060,103.812 89.125 L 103.833 78.333 105.583 78.333 C 107.286 78.333,107.333 78.343,107.337 78.708 C 107.339 78.915,107.338 83.483,107.333 88.860 C 107.327 96.623,107.370 98.654,107.538 98.722 C 107.704 98.788,107.704 98.810,107.542 98.820 C 107.400 98.829,107.335 99.140,107.339 99.792 C 107.343 100.671,107.364 100.723,107.589 100.426 C 107.723 100.249,107.833 100.192,107.833 100.301 C 107.833 100.411,107.833 100.537,107.833 100.583 C 107.833 100.629,107.807 100.648,107.776 100.625 C 107.744 100.602,107.602 100.680,107.459 100.798 C 107.124 101.076,107.262 101.590,107.681 101.622 C 107.860 101.635,107.964 101.576,107.910 101.490 C 107.857 101.404,107.893 101.333,107.990 101.333 C 108.087 101.333,108.167 101.408,108.167 101.500 C 108.167 101.592,108.437 101.667,108.768 101.667 C 109.268 101.667,109.352 101.618,109.267 101.375 C 109.172 101.101,109.179 101.101,109.395 101.378 C 109.609 101.653,110.198 101.672,118.296 101.664 C 127.654 101.655,127.167 101.701,127.167 100.820 C 127.167 100.547,127.290 100.500,128.010 100.500 C 128.640 100.500,128.821 100.447,128.728 100.292 C 128.643 100.150,128.693 100.157,128.885 100.312 C 129.040 100.438,129.178 100.475,129.192 100.395 C 129.206 100.315,129.235 100.175,129.256 100.083 C 129.277 99.992,129.304 99.790,129.314 99.635 C 129.327 99.438,129.443 99.374,129.696 99.422 C 130.161 99.512,130.500 99.228,130.500 98.750 C 130.500 98.543,130.627 98.271,130.782 98.145 C 130.974 97.990,131.024 97.983,130.939 98.125 C 130.761 98.421,131.093 98.383,131.405 98.071 C 131.708 97.768,131.759 97.423,131.474 97.599 C 131.341 97.681,131.328 97.646,131.433 97.484 C 131.515 97.355,131.583 96.988,131.583 96.669 C 131.583 96.155,131.641 96.077,132.077 96.001 C 132.643 95.903,132.980 94.966,132.612 94.511 C 132.460 94.323,132.463 94.297,132.625 94.395 C 132.756 94.473,132.833 94.423,132.833 94.260 C 132.833 94.117,132.702 93.999,132.542 93.997 C 132.338 93.996,132.312 93.956,132.455 93.865 C 132.614 93.763,132.792 46.471,132.670 36.457 C 132.667 36.180,131.987 36.167,120.042 36.207 C 110.049 36.241,107.425 36.293,107.458 36.458 C 107.481 36.573,107.416 36.667,107.314 36.667 C 107.203 36.667,107.168 36.817,107.227 37.042 C 107.282 37.248,107.330 42.543,107.334 48.808 C 107.342 59.567,107.358 60.188,107.629 59.975 C 107.883 59.777,107.892 59.781,107.710 60.015 C 107.596 60.161,107.558 60.342,107.626 60.417 C 107.694 60.492,107.644 60.492,107.513 60.416 C 107.346 60.319,107.303 60.348,107.367 60.514 C 107.442 60.709,107.118 60.750,105.493 60.750 C 104.067 60.750,103.571 60.699,103.683 60.564 C 103.774 60.454,103.834 55.453,103.831 48.273 L 103.826 36.167 94.496 36.167 C 87.154 36.167,85.163 36.211,85.147 36.375 M142.833 36.667 C 142.833 36.942,142.908 37.167,143.000 37.167 C 143.092 37.167,143.167 37.223,143.167 37.292 C 143.167 37.360,142.848 37.417,142.459 37.417 C 141.950 37.417,141.744 37.487,141.728 37.667 C 141.715 37.804,141.696 38.033,141.686 38.175 C 141.671 38.371,141.522 38.416,141.061 38.362 C 140.671 38.317,140.492 38.353,140.561 38.464 C 140.624 38.566,140.545 38.604,140.364 38.556 C 140.021 38.467,139.599 38.879,139.705 39.199 C 139.803 39.492,139.480 39.797,139.160 39.713 C 138.819 39.624,138.432 40.083,138.563 40.423 C 138.626 40.589,138.595 40.642,138.477 40.569 C 138.349 40.490,138.314 40.644,138.362 41.061 C 138.428 41.620,138.400 41.667,138.000 41.667 C 137.762 41.667,137.488 41.746,137.391 41.842 C 137.185 42.048,137.303 42.872,137.519 42.738 C 137.600 42.688,137.667 42.726,137.667 42.823 C 137.667 42.921,137.584 43.000,137.482 43.000 C 137.380 43.000,137.344 43.121,137.402 43.271 C 137.459 43.420,137.448 43.626,137.378 43.729 C 137.308 43.832,137.287 56.303,137.333 71.442 C 137.379 86.582,137.356 98.931,137.282 98.885 C 137.134 98.793,137.216 100.105,137.367 100.256 C 137.419 100.308,137.403 100.609,137.331 100.926 C 137.259 101.245,137.268 101.543,137.351 101.594 C 137.433 101.645,137.500 101.604,137.500 101.504 C 137.500 101.376,137.595 101.372,137.821 101.493 C 138.149 101.669,155.455 101.737,155.905 101.565 C 156.029 101.517,156.100 101.352,156.063 101.198 C 155.938 100.676,156.245 100.488,157.245 100.477 C 157.870 100.469,158.131 100.413,157.981 100.318 C 157.792 100.198,157.798 100.171,158.014 100.169 C 158.159 100.168,158.290 100.054,158.306 99.917 C 158.321 99.779,158.346 99.555,158.361 99.419 C 158.381 99.246,158.449 99.222,158.590 99.339 C 159.044 99.715,159.688 99.010,159.308 98.553 C 159.199 98.422,159.179 98.328,159.263 98.344 C 159.587 98.405,159.849 98.327,159.767 98.194 C 159.720 98.118,159.787 98.056,159.917 98.056 C 160.046 98.056,160.107 98.128,160.053 98.216 C 159.998 98.304,160.058 98.342,160.185 98.300 C 160.341 98.248,160.433 97.892,160.466 97.204 C 160.515 96.194,160.831 95.773,161.314 96.072 C 161.640 96.273,161.658 94.717,161.660 65.915 L 161.663 36.167 152.248 36.167 L 142.833 36.167 142.833 36.667 M171.686 36.292 C 171.783 36.907,171.640 37.350,171.359 37.302 C 170.925 37.229,170.518 37.616,170.620 38.006 C 170.678 38.228,170.622 38.333,170.444 38.333 C 170.301 38.333,170.099 38.465,169.996 38.625 C 169.821 38.897,169.815 38.896,169.904 38.611 C 169.967 38.411,169.928 38.329,169.792 38.374 C 169.677 38.412,169.560 38.680,169.531 38.971 C 169.483 39.453,169.428 39.500,168.901 39.500 C 168.344 39.500,168.324 39.521,168.362 40.083 C 168.384 40.404,168.461 40.667,168.534 40.667 C 168.607 40.667,168.667 40.751,168.667 40.854 C 168.667 40.981,168.600 40.988,168.458 40.875 C 168.344 40.783,168.068 40.723,167.846 40.742 C 167.422 40.777,167.425 40.768,167.316 42.333 C 167.277 42.876,167.173 43.129,166.936 43.250 C 166.757 43.342,166.574 43.529,166.530 43.667 C 166.473 43.847,166.562 43.824,166.851 43.583 L 167.250 43.250 166.938 43.618 C 166.767 43.821,166.542 43.971,166.438 43.952 C 166.299 43.926,166.240 50.779,166.211 70.282 C 166.168 98.865,166.118 97.167,167.012 97.167 C 167.189 97.167,167.324 97.223,167.314 97.292 C 167.253 97.678,167.360 97.983,167.542 97.939 C 167.656 97.911,167.693 97.920,167.624 97.958 C 167.555 97.997,167.547 98.109,167.608 98.207 C 167.673 98.312,167.639 98.336,167.525 98.265 C 167.416 98.198,167.287 98.261,167.230 98.407 C 167.098 98.753,167.628 99.550,167.917 99.440 C 168.226 99.321,168.471 99.671,168.397 100.125 C 168.343 100.454,168.407 100.500,168.918 100.500 C 169.381 100.500,169.500 100.566,169.500 100.820 C 169.500 101.700,168.823 101.649,180.678 101.662 L 191.659 101.674 191.665 89.474 C 191.667 82.764,191.693 77.252,191.721 77.224 C 191.748 77.196,196.229 77.153,201.677 77.128 L 211.583 77.083 211.583 69.514 C 211.583 61.915,211.562 61.634,211.000 62.003 C 210.778 62.148,210.778 62.185,211.000 62.331 C 211.151 62.430,211.171 62.496,211.052 62.497 C 210.942 62.499,210.806 62.424,210.748 62.331 C 210.691 62.237,210.593 62.188,210.530 62.221 C 210.468 62.254,210.291 62.148,210.138 61.986 C 209.897 61.733,209.893 61.679,210.107 61.597 C 210.244 61.545,210.301 61.416,210.235 61.309 C 210.165 61.195,210.188 61.160,210.290 61.223 C 210.386 61.283,210.513 61.207,210.572 61.054 C 210.750 60.589,210.615 60.582,202.439 60.628 C 195.007 60.670,194.520 60.691,194.623 60.961 C 194.725 61.225,194.694 61.223,194.262 60.940 C 193.942 60.730,193.614 60.659,193.248 60.718 C 192.724 60.803,192.333 60.611,192.333 60.268 C 192.333 60.177,192.451 60.249,192.596 60.426 C 192.849 60.739,192.855 60.735,192.765 60.333 C 192.713 60.104,192.670 59.823,192.669 59.708 C 192.668 59.594,192.474 59.500,192.238 59.500 C 191.752 59.500,191.116 58.989,191.460 58.875 C 191.574 58.837,191.667 58.717,191.667 58.610 C 191.667 58.502,191.825 58.315,192.017 58.194 C 192.264 58.041,192.331 58.035,192.244 58.176 C 192.166 58.303,192.204 58.349,192.349 58.300 C 192.474 58.259,192.638 57.968,192.712 57.654 L 192.847 57.083 202.047 57.130 C 210.626 57.174,211.261 57.157,211.459 56.887 C 211.761 56.474,211.756 37.228,211.453 36.854 C 211.292 36.655,211.293 36.629,211.458 36.728 C 211.695 36.870,211.728 36.689,211.525 36.368 C 211.372 36.127,178.667 36.134,178.667 36.375 C 178.667 36.444,177.823 36.485,176.792 36.467 L 174.917 36.435 176.667 36.333 C 178.144 36.248,177.890 36.227,175.042 36.199 C 173.185 36.181,171.676 36.223,171.686 36.292 M215.113 36.399 C 214.920 36.902,214.983 56.030,215.178 55.910 C 215.318 55.823,215.318 55.883,215.177 56.147 C 214.762 56.922,216.203 57.583,216.964 56.966 C 217.165 56.804,217.200 56.802,217.105 56.958 C 217.007 57.122,217.721 57.167,220.462 57.167 C 223.967 57.167,224.311 57.209,223.987 57.599 C 223.862 57.750,223.865 57.914,223.997 58.161 C 224.153 58.453,224.143 92.729,223.986 94.667 C 223.920 95.481,224.064 96.000,224.356 96.000 C 225.032 96.000,225.084 96.124,225.054 97.662 L 225.024 99.154 225.595 99.360 C 226.061 99.529,226.167 99.653,226.167 100.033 C 226.167 100.457,226.221 100.500,226.762 100.500 C 227.277 100.500,227.353 100.550,227.327 100.875 C 227.264 101.645,227.294 101.667,228.417 101.667 C 229.028 101.667,229.500 101.594,229.500 101.500 C 229.500 101.408,229.631 101.334,229.792 101.336 C 230.041 101.338,230.047 101.362,229.833 101.500 C 229.670 101.605,232.988 101.662,239.365 101.664 C 247.012 101.666,249.176 101.621,249.279 101.458 C 249.512 101.089,249.466 99.667,249.221 99.667 C 249.099 99.667,249.000 99.587,249.000 99.490 C 249.000 99.393,249.075 99.360,249.167 99.417 C 249.258 99.473,249.333 99.440,249.333 99.343 C 249.333 99.246,249.258 99.167,249.167 99.167 C 249.075 99.167,249.000 99.092,249.000 99.000 C 249.000 98.908,249.113 98.833,249.251 98.833 C 249.474 98.833,249.502 96.491,249.499 78.325 C 249.496 64.804,249.439 57.852,249.330 57.919 C 249.237 57.976,249.250 57.832,249.359 57.594 L 249.554 57.167 253.068 57.151 C 255.002 57.142,256.873 57.148,257.227 57.165 C 257.608 57.182,257.830 57.129,257.770 57.033 C 257.715 56.944,257.793 56.881,257.942 56.894 C 258.360 56.929,258.382 56.594,257.993 56.150 C 257.799 55.930,257.684 55.835,257.735 55.939 C 257.843 56.156,257.381 56.603,257.218 56.440 C 257.159 56.382,257.208 56.333,257.326 56.333 C 257.501 56.333,257.501 56.286,257.326 56.075 C 257.149 55.861,257.161 55.768,257.398 55.533 C 257.668 55.267,257.678 55.267,257.574 55.544 C 257.488 55.772,257.526 55.813,257.748 55.728 C 257.915 55.664,258.095 55.715,258.182 55.851 C 258.271 55.989,258.329 52.341,258.327 46.887 C 258.324 39.817,258.276 37.672,258.120 37.609 C 257.964 37.545,257.965 37.523,258.125 37.513 C 258.440 37.493,258.391 36.391,258.070 36.268 C 257.447 36.029,215.206 36.158,215.113 36.399 M269.702 36.364 C 269.440 36.626,269.443 37.203,269.708 37.500 C 269.880 37.693,269.873 37.703,269.667 37.558 C 269.259 37.270,268.690 37.187,268.529 37.392 C 268.329 37.647,268.346 38.167,268.556 38.167 C 268.647 38.167,268.673 38.216,268.612 38.277 C 268.552 38.337,267.977 38.370,267.334 38.349 L 266.167 38.311 266.147 39.197 C 266.137 39.685,266.093 39.948,266.050 39.782 C 265.919 39.276,265.097 39.475,265.056 40.023 C 265.029 40.382,265.082 40.447,265.345 40.379 C 265.522 40.332,265.667 40.364,265.667 40.448 C 265.667 40.532,265.373 40.602,265.013 40.602 C 264.192 40.604,263.806 40.896,263.977 41.388 C 264.094 41.722,264.102 42.045,264.000 42.250 C 263.977 42.296,263.949 42.427,263.938 42.542 C 263.926 42.656,263.678 42.773,263.385 42.801 L 262.854 42.853 262.854 45.103 C 262.854 47.318,262.848 47.357,262.427 47.688 C 262.192 47.873,262.000 48.131,262.000 48.262 C 262.000 48.393,261.916 48.500,261.813 48.500 C 261.691 48.500,261.706 48.598,261.855 48.782 C 262.017 48.982,262.022 49.027,261.872 48.937 C 261.566 48.753,261.637 50.498,261.950 50.858 C 262.133 51.070,262.141 51.163,261.985 51.259 C 261.860 51.337,261.825 51.315,261.894 51.204 C 261.955 51.104,261.929 50.976,261.836 50.918 C 261.726 50.850,261.667 51.364,261.667 52.389 C 261.667 53.918,261.655 53.967,261.261 54.066 C 260.828 54.174,260.487 54.857,260.811 54.965 C 260.915 54.999,261.000 55.101,261.000 55.190 C 261.000 55.280,260.933 55.312,260.851 55.261 C 260.769 55.210,260.661 55.273,260.612 55.402 C 260.474 55.762,260.678 56.333,260.946 56.333 C 261.078 56.333,261.140 56.258,261.083 56.167 C 261.027 56.075,261.064 56.000,261.167 56.000 C 261.269 56.000,261.313 55.935,261.264 55.856 C 261.215 55.776,261.342 55.570,261.546 55.397 L 261.917 55.083 261.599 55.458 C 261.303 55.808,261.348 55.920,261.750 55.839 C 261.842 55.821,261.861 55.861,261.793 55.929 C 261.725 55.997,261.761 56.172,261.874 56.318 C 261.989 56.468,261.903 56.438,261.677 56.250 C 261.347 55.975,261.294 55.965,261.378 56.195 C 261.483 56.484,261.097 56.746,260.818 56.574 C 260.735 56.522,260.667 56.597,260.667 56.740 C 260.667 56.883,260.742 57.000,260.833 57.000 C 260.925 57.000,260.999 57.131,260.997 57.292 C 260.995 57.542,260.971 57.548,260.825 57.333 C 260.701 57.152,260.672 57.301,260.717 57.882 C 260.752 58.321,260.723 58.715,260.654 58.758 C 260.501 58.853,260.580 61.468,260.748 61.875 C 260.822 62.053,260.795 62.167,260.679 62.167 C 260.540 62.167,260.537 62.257,260.666 62.499 C 260.841 62.825,261.017 62.831,270.450 62.816 C 280.942 62.800,280.500 62.829,280.500 62.169 C 280.500 61.915,280.627 61.605,280.782 61.479 C 280.974 61.323,281.024 61.317,280.939 61.458 C 280.846 61.613,281.007 61.667,281.560 61.667 C 282.530 61.667,282.815 61.547,282.719 61.181 C 282.618 60.795,283.080 60.336,283.490 60.415 C 283.733 60.461,283.794 60.397,283.746 60.146 C 283.711 59.964,283.824 59.695,283.999 59.545 C 284.174 59.396,284.270 59.194,284.213 59.095 C 284.156 58.997,284.263 59.051,284.451 59.216 C 284.838 59.554,285.000 59.363,285.000 58.570 C 285.000 58.348,285.061 58.167,285.135 58.167 C 285.554 58.167,285.900 57.698,285.678 57.431 C 285.484 57.196,285.490 57.173,285.726 57.264 C 285.879 57.322,286.000 57.287,286.000 57.184 C 286.000 56.895,285.476 56.969,285.240 57.291 C 285.089 57.499,285.078 57.644,285.204 57.795 C 285.337 57.956,285.316 57.983,285.118 57.907 C 284.974 57.852,284.867 57.668,284.879 57.498 C 284.892 57.329,284.962 57.226,285.035 57.271 C 285.107 57.316,285.167 57.236,285.167 57.093 C 285.167 56.859,285.385 56.772,285.939 56.785 C 286.064 56.788,286.136 56.267,286.154 55.228 C 286.168 54.369,286.115 53.667,286.034 53.667 C 285.954 53.667,285.889 53.554,285.889 53.417 C 285.889 53.279,285.951 53.167,286.028 53.167 C 286.104 53.167,286.167 53.054,286.167 52.917 C 286.167 52.779,286.307 52.667,286.480 52.667 C 287.098 52.667,287.192 52.285,287.165 49.885 C 287.120 45.791,287.114 45.851,287.526 45.959 C 287.804 46.031,287.853 45.999,287.744 45.818 C 287.624 45.618,287.644 45.617,287.885 45.812 C 288.045 45.942,288.167 45.966,288.167 45.867 C 288.167 45.772,288.217 45.563,288.278 45.403 C 288.362 45.184,288.332 45.145,288.153 45.247 C 287.962 45.357,287.956 45.340,288.125 45.158 C 288.572 44.676,288.395 42.649,287.913 42.736 C 287.672 42.780,287.535 42.745,287.591 42.654 C 287.645 42.566,287.744 42.528,287.811 42.570 C 288.084 42.738,288.434 42.345,288.167 42.169 C 288.015 42.069,287.995 42.004,288.116 42.003 C 288.422 41.999,288.331 40.303,288.009 40.028 C 287.778 39.830,287.781 39.816,288.042 39.898 C 288.202 39.948,288.333 39.917,288.333 39.828 C 288.333 39.739,288.240 39.664,288.125 39.662 C 288.010 39.659,288.051 39.579,288.215 39.483 C 288.378 39.388,288.603 39.340,288.713 39.377 C 289.074 39.497,289.376 38.995,289.374 38.282 C 289.372 37.691,289.256 36.395,289.187 36.188 C 289.176 36.154,289.040 36.229,288.885 36.355 C 288.730 36.480,288.654 36.497,288.718 36.392 C 288.908 36.075,287.632 36.154,287.381 36.475 C 287.183 36.728,287.174 36.727,287.265 36.464 C 287.394 36.095,270.070 35.997,269.702 36.364 M297.400 36.361 C 297.362 36.422,297.425 36.510,297.541 36.556 C 297.663 36.605,297.624 36.646,297.447 36.654 C 297.218 36.663,297.171 36.751,297.254 37.014 C 297.346 37.303,297.299 37.356,296.974 37.329 C 296.246 37.268,296.180 37.318,296.224 37.887 C 296.263 38.374,296.224 38.433,295.910 38.373 C 295.488 38.292,295.000 38.724,295.000 39.179 C 295.000 39.425,294.883 39.500,294.500 39.500 C 294.158 39.500,294.000 39.582,294.000 39.760 C 294.000 39.903,294.068 39.978,294.151 39.926 C 294.234 39.875,294.219 40.009,294.117 40.225 C 293.995 40.485,293.830 40.591,293.633 40.539 C 293.468 40.496,293.333 40.545,293.333 40.647 C 293.333 40.750,293.240 40.815,293.125 40.792 C 292.959 40.758,292.917 46.589,292.917 69.500 C 292.917 92.378,292.959 98.254,293.125 98.271 C 293.240 98.282,293.516 98.301,293.738 98.313 C 294.105 98.331,294.130 98.380,294.004 98.821 C 293.838 99.398,293.954 99.577,294.308 99.290 C 294.467 99.162,294.521 99.155,294.451 99.273 C 294.381 99.388,294.499 99.493,294.752 99.541 C 295.047 99.598,295.167 99.547,295.167 99.366 C 295.167 99.226,295.213 99.158,295.271 99.215 C 295.328 99.272,295.316 99.453,295.246 99.618 C 294.949 100.306,294.995 100.449,295.522 100.464 C 296.147 100.482,296.174 100.507,296.220 101.105 C 296.255 101.561,296.298 101.584,297.170 101.631 C 297.833 101.667,298.015 101.633,297.833 101.509 C 297.681 101.405,297.661 101.337,297.782 101.336 C 297.891 101.334,298.027 101.408,298.083 101.500 C 298.140 101.592,298.374 101.667,298.603 101.667 C 298.832 101.667,298.978 101.600,298.927 101.517 C 298.877 101.435,298.943 101.327,299.076 101.276 C 299.229 101.217,299.286 101.264,299.232 101.404 C 299.162 101.585,300.745 101.620,308.115 101.604 L 317.083 101.583 317.136 100.947 C 317.165 100.597,317.099 100.203,316.990 100.072 C 316.849 99.901,316.846 99.833,316.980 99.833 C 317.118 99.833,317.167 94.649,317.165 80.208 C 317.163 69.415,317.162 60.058,317.164 59.415 L 317.167 58.247 317.708 58.248 C 318.209 58.250,318.250 58.209,318.248 57.708 C 318.246 56.926,319.321 56.873,319.931 57.625 C 320.131 57.873,320.360 58.003,320.472 57.934 C 320.657 57.820,320.789 58.656,320.654 59.083 C 320.625 59.175,320.604 59.475,320.607 59.750 C 320.679 65.375,320.649 100.020,320.572 100.220 C 320.513 100.374,320.522 100.631,320.593 100.792 C 320.738 101.120,320.782 101.263,320.813 101.491 C 320.825 101.589,324.661 101.639,330.875 101.622 C 338.584 101.601,339.813 101.573,336.167 101.502 L 331.417 101.409 336.208 101.371 C 339.317 101.347,341.000 101.392,341.000 101.500 C 341.000 101.859,345.579 101.706,345.914 101.336 C 346.172 101.051,346.181 100.967,345.981 100.721 C 345.854 100.564,345.825 100.481,345.917 100.535 C 346.027 100.601,346.083 93.628,346.083 79.750 C 346.083 68.263,346.022 58.903,345.946 58.950 C 345.871 58.997,345.899 58.890,346.010 58.712 C 346.121 58.535,346.427 58.308,346.689 58.209 C 347.045 58.075,347.167 57.919,347.167 57.598 C 347.167 57.216,347.234 57.167,347.750 57.167 C 348.167 57.167,348.333 57.241,348.333 57.427 C 348.333 57.590,348.411 57.640,348.542 57.561 C 348.706 57.463,348.705 57.491,348.540 57.696 C 348.368 57.908,348.376 57.994,348.581 58.165 C 348.720 58.280,348.833 58.330,348.833 58.276 C 348.833 58.222,348.984 58.233,349.169 58.301 C 349.502 58.425,349.504 58.556,349.544 80.004 L 349.583 101.583 350.220 101.636 C 350.575 101.665,350.976 101.591,351.127 101.469 C 351.325 101.308,351.364 101.305,351.272 101.458 C 351.175 101.620,351.543 101.667,352.907 101.667 C 353.969 101.667,354.667 101.601,354.667 101.500 C 354.667 101.392,356.294 101.347,359.292 101.371 L 363.917 101.409 359.333 101.501 C 356.209 101.563,357.773 101.591,364.250 101.588 L 373.750 101.583 373.788 71.145 L 373.826 40.707 373.330 40.608 C 372.910 40.524,372.833 40.430,372.833 40.004 C 372.833 39.542,372.786 39.500,372.268 39.500 C 371.681 39.500,371.529 39.330,371.579 38.732 C 371.594 38.538,371.527 38.381,371.429 38.383 C 370.805 38.393,370.561 38.283,370.391 37.915 C 370.285 37.687,370.266 37.542,370.349 37.593 C 370.432 37.644,370.500 37.607,370.500 37.510 C 370.500 37.327,370.294 37.273,369.792 37.325 C 369.631 37.341,369.500 37.270,369.500 37.167 C 369.500 37.064,369.406 37.033,369.292 37.098 C 369.129 37.190,369.127 37.168,369.284 36.999 C 369.423 36.848,369.434 36.688,369.320 36.474 C 369.161 36.179,368.559 36.167,353.760 36.167 L 338.365 36.167 338.460 36.531 L 338.555 36.895 338.010 36.507 C 337.564 36.190,337.439 36.161,337.321 36.351 C 337.214 36.522,337.295 36.611,337.630 36.689 C 338.081 36.793,338.081 36.794,337.667 36.816 C 337.365 36.832,337.313 36.878,337.477 36.982 C 337.602 37.061,337.833 37.092,337.991 37.051 C 338.172 37.003,338.278 37.072,338.278 37.235 C 338.278 37.393,338.207 37.442,338.097 37.360 C 337.952 37.252,337.141 37.234,336.284 37.320 C 336.212 37.327,336.164 37.427,336.179 37.542 C 336.255 38.127,336.148 38.333,335.770 38.333 C 335.266 38.333,334.940 38.722,335.034 39.212 C 335.100 39.559,335.053 39.588,334.511 39.536 C 334.059 39.492,333.977 39.520,334.167 39.653 C 334.373 39.798,334.376 39.829,334.181 39.831 C 334.051 39.832,333.994 39.883,334.054 39.943 C 334.114 40.003,334.080 40.153,333.978 40.276 C 333.846 40.435,333.844 40.562,333.970 40.714 C 334.083 40.850,334.091 41.017,333.993 41.172 C 333.865 41.375,333.838 41.366,333.836 41.116 C 333.834 40.935,333.639 40.748,333.344 40.645 C 332.996 40.524,332.822 40.329,332.744 39.971 C 332.646 39.528,332.575 39.476,332.150 39.538 C 331.689 39.606,331.667 39.580,331.667 38.971 C 331.667 38.353,331.648 38.333,331.083 38.333 C 330.491 38.333,330.414 38.220,330.491 37.460 C 330.511 37.259,330.440 37.200,330.258 37.270 C 330.079 37.339,330.025 37.296,330.086 37.136 C 330.136 37.007,329.986 36.736,329.753 36.534 L 329.331 36.167 314.072 36.167 C 304.697 36.167,298.851 36.226,298.910 36.322 C 298.962 36.407,298.929 36.524,298.836 36.582 C 298.743 36.639,298.667 36.574,298.667 36.436 C 298.667 36.182,297.552 36.116,297.400 36.361 M27.333 36.510 C 27.333 36.607,27.255 36.638,27.159 36.579 C 27.064 36.520,26.857 36.572,26.701 36.694 C 26.445 36.895,26.439 36.888,26.645 36.625 C 26.897 36.304,27.333 36.231,27.333 36.510 M60.362 36.458 C 54.649 36.483,45.349 36.483,39.695 36.458 C 34.042 36.434,38.717 36.414,50.083 36.414 C 61.450 36.414,66.075 36.434,60.362 36.458 M98.719 36.458 C 97.052 36.485,94.277 36.485,92.553 36.458 C 90.828 36.431,92.192 36.409,95.583 36.409 C 98.975 36.409,100.386 36.431,98.719 36.458 M125.375 36.458 C 122.419 36.484,117.581 36.484,114.625 36.458 C 111.669 36.433,114.087 36.412,120.000 36.412 C 125.912 36.412,128.331 36.433,125.375 36.458 M156.208 36.458 C 154.352 36.485,151.315 36.485,149.458 36.458 C 147.602 36.431,149.121 36.409,152.833 36.409 C 156.546 36.409,158.065 36.431,156.208 36.458 M246.458 36.458 C 241.073 36.483,232.260 36.483,226.875 36.458 C 221.490 36.434,225.896 36.414,236.667 36.414 C 247.438 36.414,251.844 36.434,246.458 36.458 M320.958 36.458 C 317.406 36.483,311.594 36.483,308.042 36.458 C 304.490 36.433,307.396 36.413,314.500 36.413 C 321.604 36.413,324.510 36.433,320.958 36.458 M358.863 36.458 C 355.441 36.483,349.891 36.483,346.529 36.458 C 343.167 36.433,345.967 36.412,352.750 36.412 C 359.533 36.412,362.284 36.433,358.863 36.458 M143.995 36.653 C 143.973 37.046,143.533 37.324,143.327 37.076 C 143.147 36.859,143.151 36.823,143.347 36.866 C 143.477 36.894,143.569 36.835,143.551 36.736 C 143.533 36.637,143.627 36.556,143.759 36.556 C 143.892 36.556,143.998 36.599,143.995 36.653 M257.455 36.825 C 257.436 37.070,257.378 37.106,257.215 36.971 C 256.930 36.734,256.942 36.500,257.240 36.500 C 257.374 36.500,257.469 36.642,257.455 36.825 M298.114 37.004 C 298.152 37.252,298.072 37.330,297.791 37.322 C 297.503 37.313,297.479 37.284,297.685 37.197 C 297.832 37.134,297.931 36.945,297.905 36.776 C 297.880 36.608,297.905 36.516,297.961 36.572 C 298.018 36.629,298.087 36.823,298.114 37.004 M132.391 36.875 C 132.348 36.944,132.037 36.995,131.698 36.988 C 131.304 36.981,131.186 36.936,131.369 36.863 C 131.754 36.711,132.487 36.719,132.391 36.875 M288.563 37.548 C 288.837 37.749,288.835 37.762,288.523 37.762 C 288.341 37.762,288.224 37.709,288.263 37.645 C 288.303 37.581,288.241 37.490,288.126 37.444 C 288.011 37.398,287.996 37.354,288.093 37.346 C 288.190 37.339,288.401 37.430,288.563 37.548 M132.397 37.759 C 132.452 37.901,132.427 37.975,132.343 37.923 C 132.259 37.871,132.147 37.896,132.096 37.980 C 132.044 38.063,132.114 38.175,132.251 38.227 C 132.406 38.287,132.495 38.529,132.487 38.870 L 132.475 39.417 132.279 38.887 C 132.171 38.596,132.027 38.302,131.958 38.234 C 131.771 38.050,131.807 37.631,132.000 37.750 C 132.092 37.807,132.167 37.774,132.167 37.677 C 132.167 37.419,132.283 37.461,132.397 37.759 M210.858 38.375 C 210.778 38.895,210.770 38.900,210.663 38.500 C 210.547 38.063,210.599 37.833,210.814 37.833 C 210.885 37.833,210.904 38.077,210.858 38.375 M288.744 38.630 C 288.840 39.177,288.709 39.309,288.388 38.988 C 288.261 38.861,288.263 38.696,288.395 38.417 C 288.617 37.946,288.624 37.950,288.744 38.630 M211.441 38.930 L 211.465 39.583 211.347 38.917 L 211.228 38.250 211.141 38.833 L 211.053 39.417 211.027 38.778 C 211.008 38.333,211.063 38.160,211.208 38.207 C 211.323 38.245,211.428 38.570,211.441 38.930 M132.497 39.958 C 132.496 40.292,132.454 40.353,132.346 40.182 C 132.264 40.053,132.236 39.846,132.283 39.723 C 132.418 39.371,132.500 39.461,132.497 39.958 M334.833 40.257 C 334.833 40.368,334.702 40.562,334.542 40.688 C 334.284 40.890,334.274 40.886,334.454 40.654 C 334.592 40.478,334.604 40.337,334.490 40.224 C 334.377 40.111,334.406 40.056,334.578 40.056 C 334.718 40.056,334.833 40.146,334.833 40.257 M257.500 46.917 C 257.500 51.113,257.440 53.517,257.333 53.583 C 257.223 53.651,257.167 51.387,257.167 46.917 C 257.167 42.446,257.223 40.182,257.333 40.250 C 257.440 40.316,257.500 42.721,257.500 46.917 M276.167 45.990 C 276.167 47.457,276.229 48.186,276.362 48.268 C 276.496 48.351,276.522 48.290,276.445 48.069 C 276.344 47.782,276.354 47.778,276.547 48.024 C 276.724 48.250,277.090 48.296,278.672 48.288 C 280.492 48.280,280.524 48.274,279.333 48.166 L 278.083 48.052 279.331 48.068 L 280.578 48.083 280.581 49.966 L 280.583 51.849 278.363 51.768 L 276.143 51.686 276.171 52.301 C 276.186 52.640,276.192 53.423,276.183 54.042 L 276.167 55.167 274.800 55.167 C 273.737 55.167,273.478 55.122,273.633 54.967 C 273.853 54.747,273.922 51.843,273.708 51.820 C 273.640 51.812,273.358 51.773,273.083 51.732 C 272.708 51.677,272.646 51.701,272.833 51.827 C 272.985 51.929,273.005 51.996,272.885 51.997 C 272.776 51.999,272.634 51.915,272.570 51.812 C 272.489 51.681,271.987 51.659,270.909 51.738 C 269.777 51.821,269.331 51.797,269.240 51.650 C 269.158 51.518,269.185 51.492,269.319 51.574 C 269.476 51.671,269.511 51.312,269.470 50.017 L 269.417 48.333 271.292 48.333 C 273.230 48.333,273.303 48.306,273.182 47.613 C 273.169 47.537,273.232 47.521,273.322 47.576 C 273.412 47.632,273.439 47.798,273.383 47.945 C 273.313 48.127,273.355 48.187,273.515 48.134 C 273.694 48.075,273.762 47.610,273.803 46.170 C 273.859 44.149,273.784 43.944,273.038 44.078 C 272.830 44.115,272.703 44.076,272.756 43.990 C 272.810 43.904,273.599 43.833,274.510 43.833 L 276.167 43.833 276.167 45.990 M287.294 44.905 C 287.135 45.021,287.060 45.177,287.128 45.252 C 287.195 45.326,287.151 45.330,287.030 45.260 C 286.857 45.160,286.874 45.071,287.114 44.838 C 287.280 44.676,287.454 44.577,287.500 44.618 C 287.545 44.660,287.453 44.789,287.294 44.905 M293.125 81.208 C 293.101 87.648,293.081 82.379,293.081 69.500 C 293.081 56.621,293.101 51.352,293.125 57.792 C 293.149 64.231,293.149 74.769,293.125 81.208 M271.083 48.000 C 271.148 48.104,270.855 48.157,270.302 48.142 L 269.417 48.117 270.167 48.000 C 270.579 47.936,270.931 47.872,270.948 47.858 C 270.966 47.845,271.027 47.908,271.083 48.000 M286.276 50.242 C 286.214 50.403,286.264 50.452,286.425 50.390 C 286.558 50.339,286.667 50.393,286.667 50.510 C 286.667 50.627,286.617 50.673,286.557 50.613 C 286.497 50.552,286.347 50.586,286.224 50.689 C 286.077 50.811,286.000 50.815,286.000 50.701 C 286.000 50.456,286.186 50.000,286.286 50.000 C 286.331 50.000,286.327 50.109,286.276 50.242 M276.227 55.583 C 276.155 55.772,275.850 55.833,274.982 55.833 C 273.456 55.833,273.504 55.530,275.042 55.457 C 275.706 55.425,276.266 55.385,276.286 55.366 C 276.306 55.348,276.280 55.446,276.227 55.583 M223.891 56.125 C 223.934 56.194,222.945 56.231,221.693 56.207 C 217.492 56.127,217.058 56.066,220.448 56.033 C 222.299 56.015,223.849 56.056,223.891 56.125 M252.875 56.125 C 250.817 56.155,249.500 56.237,249.500 56.337 C 249.500 56.437,250.810 56.515,252.875 56.538 L 256.250 56.576 252.929 56.625 C 251.019 56.653,249.541 56.608,249.451 56.518 C 249.017 56.083,249.606 56.001,252.885 56.038 L 256.250 56.076 252.875 56.125 M222.208 56.624 C 221.269 56.654,219.731 56.654,218.792 56.624 C 217.852 56.595,218.621 56.570,220.500 56.570 C 222.379 56.570,223.148 56.595,222.208 56.624 M192.162 57.304 C 192.027 57.348,191.862 57.466,191.794 57.567 C 191.723 57.673,191.671 57.599,191.669 57.391 C 191.667 57.101,191.738 57.050,192.037 57.128 C 192.298 57.196,192.335 57.249,192.162 57.304 M225.083 57.167 C 225.140 57.258,225.107 57.333,225.010 57.333 C 224.806 57.333,224.845 57.698,225.067 57.859 C 225.150 57.919,225.029 57.956,224.799 57.942 C 224.410 57.918,224.397 57.891,224.615 57.558 C 224.805 57.269,224.808 57.183,224.633 57.113 C 224.490 57.056,224.512 57.022,224.698 57.013 C 224.854 57.006,225.027 57.075,225.083 57.167 M317.952 57.952 C 317.744 58.161,317.620 58.186,317.483 58.050 C 317.347 57.914,317.380 57.871,317.607 57.891 C 317.815 57.908,317.908 57.815,317.891 57.607 C 317.871 57.380,317.914 57.347,318.050 57.483 C 318.186 57.620,318.161 57.744,317.952 57.952 M248.458 88.375 C 248.434 93.898,248.414 89.379,248.414 78.333 C 248.414 67.287,248.434 62.769,248.458 68.292 C 248.483 73.815,248.483 82.852,248.458 88.375 M350.766 59.526 C 350.836 59.640,350.812 59.673,350.706 59.608 C 350.607 59.547,350.416 59.608,350.280 59.744 C 350.061 59.963,350.021 59.962,349.935 59.737 C 349.881 59.597,349.896 59.519,349.968 59.564 C 350.040 59.608,350.208 59.576,350.341 59.492 C 350.645 59.299,350.625 59.297,350.766 59.526 M350.451 60.588 C 350.470 60.592,350.330 60.693,350.141 60.811 C 349.858 60.987,349.811 60.986,349.876 60.804 C 349.919 60.683,349.879 60.433,349.787 60.250 C 349.618 59.917,349.619 59.917,350.017 60.248 C 350.237 60.431,350.432 60.583,350.451 60.588 M321.601 60.751 C 321.645 61.056,320.966 60.981,320.862 60.670 C 320.822 60.549,320.868 60.502,320.967 60.563 C 321.064 60.623,321.194 60.591,321.255 60.492 C 321.385 60.281,321.550 60.405,321.601 60.751 M210.992 60.838 C 210.608 61.076,210.654 62.019,211.039 61.812 C 211.205 61.724,211.414 61.697,211.503 61.752 C 211.593 61.808,211.667 61.741,211.667 61.603 C 211.667 61.466,211.590 61.306,211.497 61.248 C 211.404 61.191,211.368 61.079,211.417 61.000 C 211.553 60.780,211.264 60.670,210.992 60.838 M60.280 60.958 C 58.005 60.984,54.330 60.984,52.113 60.958 C 49.897 60.932,51.758 60.910,56.250 60.911 C 60.742 60.911,62.555 60.932,60.280 60.958 M106.375 61.623 C 105.894 61.657,105.106 61.657,104.625 61.623 C 104.144 61.589,104.537 61.562,105.500 61.562 C 106.462 61.562,106.856 61.589,106.375 61.623 M345.833 80.500 C 345.833 92.389,345.777 98.500,345.667 98.500 C 345.485 98.500,345.420 63.235,345.601 62.764 C 345.657 62.619,345.732 62.500,345.768 62.500 C 345.804 62.500,345.833 70.600,345.833 80.500 M72.266 65.692 C 72.345 65.820,72.311 65.839,72.164 65.748 C 72.000 65.647,71.973 65.690,72.059 65.913 C 72.158 66.171,72.137 66.183,71.913 65.997 C 71.704 65.823,71.695 65.752,71.867 65.642 C 72.142 65.468,72.126 65.466,72.266 65.692 M20.782 68.625 C 20.740 68.785,20.705 68.654,20.705 68.333 C 20.705 68.012,20.740 67.881,20.782 68.042 C 20.823 68.202,20.823 68.465,20.782 68.625 M108.167 77.896 C 108.167 78.023,108.054 78.219,107.917 78.333 C 107.655 78.551,107.525 78.031,107.778 77.778 C 107.964 77.592,108.167 77.653,108.167 77.896 M132.500 92.367 C 132.500 92.636,132.451 92.684,132.315 92.548 C 132.213 92.446,132.179 92.281,132.241 92.181 C 132.413 91.902,132.500 91.964,132.500 92.367 M132.026 95.080 C 132.057 95.261,132.008 95.412,131.917 95.415 C 131.825 95.419,131.637 95.490,131.500 95.573 C 131.325 95.679,131.338 95.624,131.542 95.391 C 131.702 95.207,131.833 94.957,131.833 94.834 C 131.833 94.524,131.956 94.681,132.026 95.080 M159.583 97.000 C 159.527 97.092,159.630 97.167,159.814 97.167 C 159.997 97.167,160.201 97.254,160.268 97.362 C 160.349 97.493,160.297 97.522,160.111 97.450 C 159.948 97.388,159.833 97.426,159.833 97.541 C 159.833 97.663,159.730 97.635,159.564 97.468 C 159.330 97.235,159.355 96.833,159.603 96.833 C 159.649 96.833,159.640 96.908,159.583 97.000 M321.708 98.708 C 321.617 98.823,321.563 99.039,321.587 99.188 C 321.618 99.381,321.540 99.436,321.316 99.377 C 321.142 99.332,321.000 99.231,321.000 99.152 C 321.000 99.074,321.131 99.052,321.292 99.102 C 321.536 99.179,321.529 99.147,321.250 98.908 C 320.983 98.678,320.973 98.641,321.203 98.720 C 321.360 98.774,321.534 98.747,321.588 98.659 C 321.642 98.572,321.729 98.500,321.780 98.500 C 321.832 98.500,321.800 98.594,321.708 98.708 M350.614 98.896 C 350.566 99.023,350.614 99.221,350.721 99.337 C 350.875 99.503,350.863 99.518,350.667 99.404 C 350.529 99.325,350.271 99.237,350.093 99.209 C 349.916 99.182,349.728 99.112,349.677 99.055 C 349.625 98.998,349.757 98.994,349.969 99.046 C 350.217 99.107,350.386 99.057,350.445 98.904 C 350.495 98.773,350.573 98.667,350.619 98.667 C 350.665 98.667,350.663 98.770,350.614 98.896 M69.968 99.785 C 69.771 99.994,69.569 100.124,69.518 100.074 C 69.468 100.023,69.528 99.919,69.651 99.843 C 69.775 99.766,69.827 99.625,69.768 99.529 C 69.704 99.426,69.798 99.364,69.992 99.379 C 70.319 99.403,70.319 99.411,69.968 99.785 M128.730 99.592 C 128.785 99.734,128.763 99.810,128.682 99.760 C 128.601 99.710,128.492 99.781,128.439 99.918 C 128.387 100.055,128.217 100.167,128.062 100.167 C 127.823 100.167,128.136 99.699,128.607 99.351 C 128.620 99.341,128.676 99.450,128.730 99.592 M350.500 99.627 C 350.500 99.695,350.312 99.761,350.083 99.774 C 349.539 99.805,349.539 99.583,350.083 99.538 C 350.313 99.519,350.500 99.559,350.500 99.627 M321.900 100.432 C 321.970 100.616,321.923 100.639,321.705 100.526 C 321.546 100.445,321.330 100.410,321.224 100.448 C 321.117 100.486,320.989 100.450,320.938 100.367 C 320.887 100.285,321.061 100.211,321.326 100.203 C 321.603 100.196,321.846 100.292,321.900 100.432 M249.000 100.536 C 249.000 100.733,248.359 101.333,248.148 101.333 C 248.046 101.333,248.134 101.195,248.342 101.027 C 248.634 100.790,248.670 100.689,248.501 100.584 C 248.361 100.497,248.322 100.513,248.394 100.629 C 248.584 100.937,248.218 101.013,247.977 100.716 C 247.846 100.554,247.833 100.486,247.947 100.554 C 248.055 100.619,248.181 100.612,248.226 100.538 C 248.333 100.366,249.000 100.364,249.000 100.536 M126.438 100.695 C 126.187 100.838,126.171 100.900,126.355 101.017 C 126.535 101.131,126.521 101.162,126.292 101.164 C 125.843 101.168,125.923 100.576,126.375 100.545 C 126.722 100.520,126.726 100.532,126.438 100.695 M170.395 100.632 C 170.440 100.705,170.332 100.775,170.155 100.788 C 169.978 100.802,169.833 100.742,169.833 100.656 C 169.833 100.467,170.281 100.447,170.395 100.632 M67.782 101.075 C 67.402 101.456,67.231 101.389,67.584 100.999 C 67.751 100.815,67.921 100.699,67.963 100.741 C 68.005 100.783,67.924 100.934,67.782 101.075 M170.833 101.149 C 170.833 101.231,170.733 101.336,170.611 101.383 C 170.489 101.430,170.389 101.363,170.389 101.234 C 170.389 101.105,170.489 101.000,170.611 101.000 C 170.733 101.000,170.833 101.067,170.833 101.149 " stroke="none" fill="#649cf4" fill-rule="evenodd"></path><path id="path1" d="M176.667 36.333 L 174.917 36.435 176.792 36.467 C 177.952 36.488,178.667 36.437,178.667 36.333 C 178.667 36.242,178.610 36.181,178.542 36.199 C 178.473 36.217,177.629 36.278,176.667 36.333 M183.625 36.291 C 185.573 36.318,188.760 36.318,190.708 36.291 C 192.656 36.265,191.063 36.243,187.167 36.243 C 183.271 36.243,181.677 36.265,183.625 36.291 M337.667 36.259 C 337.667 36.279,337.861 36.422,338.098 36.578 C 338.506 36.845,338.527 36.844,338.473 36.569 C 338.431 36.350,337.667 36.056,337.667 36.259 M26.645 36.625 C 26.439 36.888,26.445 36.895,26.701 36.694 C 26.857 36.572,27.064 36.520,27.159 36.579 C 27.255 36.638,27.333 36.607,27.333 36.510 C 27.333 36.231,26.897 36.304,26.645 36.625 M39.695 36.458 C 45.349 36.483,54.649 36.483,60.362 36.458 C 66.075 36.434,61.450 36.414,50.083 36.414 C 38.717 36.414,34.042 36.434,39.695 36.458 M92.553 36.458 C 94.277 36.485,97.052 36.485,98.719 36.458 C 100.386 36.431,98.975 36.409,95.583 36.409 C 92.192 36.409,90.828 36.431,92.553 36.458 M114.625 36.458 C 117.581 36.484,122.419 36.484,125.375 36.458 C 128.331 36.433,125.912 36.412,120.000 36.412 C 114.087 36.412,111.669 36.433,114.625 36.458 M149.458 36.458 C 151.315 36.485,154.352 36.485,156.208 36.458 C 158.065 36.431,156.546 36.409,152.833 36.409 C 149.121 36.409,147.602 36.431,149.458 36.458 M226.875 36.458 C 232.260 36.483,241.073 36.483,246.458 36.458 C 251.844 36.434,247.438 36.414,236.667 36.414 C 225.896 36.414,221.490 36.434,226.875 36.458 M308.042 36.458 C 311.594 36.483,317.406 36.483,320.958 36.458 C 324.510 36.433,321.604 36.413,314.500 36.413 C 307.396 36.413,304.490 36.433,308.042 36.458 M346.529 36.458 C 349.891 36.483,355.441 36.483,358.863 36.458 C 362.284 36.433,359.533 36.412,352.750 36.412 C 345.967 36.412,343.167 36.433,346.529 36.458 M25.928 36.821 C 25.704 37.068,25.678 37.213,25.813 37.446 C 25.918 37.626,25.992 37.661,25.995 37.532 C 25.998 37.412,26.076 37.361,26.169 37.418 C 26.263 37.476,26.294 37.612,26.240 37.720 C 26.186 37.828,26.263 37.768,26.410 37.585 C 26.657 37.281,26.656 37.238,26.406 37.055 C 26.256 36.945,26.183 36.776,26.243 36.678 C 26.420 36.392,26.243 36.473,25.928 36.821 M143.551 36.736 C 143.569 36.835,143.477 36.894,143.347 36.866 C 143.151 36.823,143.147 36.859,143.327 37.076 C 143.523 37.312,143.565 37.309,143.767 37.044 C 144.056 36.663,144.054 36.556,143.759 36.556 C 143.627 36.556,143.533 36.637,143.551 36.736 M257.000 36.667 C 257.000 36.758,257.112 36.833,257.250 36.833 C 257.387 36.833,257.500 36.758,257.500 36.667 C 257.500 36.575,257.387 36.500,257.250 36.500 C 257.112 36.500,257.000 36.575,257.000 36.667 M297.905 36.776 C 297.931 36.945,297.832 37.134,297.685 37.197 C 297.479 37.284,297.503 37.313,297.791 37.322 C 298.150 37.333,298.256 36.867,297.961 36.572 C 297.905 36.516,297.880 36.608,297.905 36.776 M131.369 36.863 C 131.186 36.936,131.304 36.981,131.698 36.988 C 132.037 36.995,132.348 36.944,132.391 36.875 C 132.487 36.719,131.754 36.711,131.369 36.863 M337.167 36.904 C 337.167 37.035,337.035 37.179,336.875 37.223 C 336.715 37.267,336.883 37.282,337.250 37.255 C 337.617 37.229,337.998 37.272,338.097 37.351 C 338.211 37.441,338.278 37.401,338.278 37.242 C 338.278 37.102,338.159 37.000,338.014 37.013 C 337.464 37.065,337.264 36.962,337.667 36.833 L 338.083 36.700 337.625 36.683 C 337.331 36.673,337.167 36.752,337.167 36.904 M288.126 37.444 C 288.241 37.490,288.303 37.581,288.263 37.645 C 288.224 37.709,288.341 37.762,288.523 37.762 C 288.835 37.762,288.837 37.749,288.563 37.548 C 288.401 37.430,288.190 37.339,288.093 37.346 C 287.996 37.354,288.011 37.398,288.126 37.444 M132.167 37.677 C 132.167 37.774,132.092 37.807,132.000 37.750 C 131.807 37.631,131.771 38.050,131.958 38.234 C 132.027 38.302,132.171 38.596,132.279 38.887 L 132.475 39.417 132.487 38.870 C 132.495 38.529,132.406 38.287,132.251 38.227 C 132.114 38.175,132.044 38.063,132.096 37.980 C 132.147 37.896,132.259 37.871,132.343 37.923 C 132.427 37.975,132.452 37.901,132.397 37.759 C 132.283 37.461,132.167 37.419,132.167 37.677 M210.619 37.958 C 210.583 38.027,210.602 38.271,210.663 38.500 C 210.770 38.900,210.778 38.895,210.858 38.375 C 210.934 37.888,210.791 37.638,210.619 37.958 M288.395 38.417 C 288.263 38.696,288.261 38.861,288.388 38.988 C 288.709 39.309,288.840 39.177,288.744 38.630 C 288.624 37.950,288.617 37.946,288.395 38.417 M132.667 65.986 C 132.667 88.086,132.624 93.823,132.458 93.890 C 132.334 93.940,132.367 93.979,132.542 93.987 C 132.818 93.999,132.833 92.565,132.833 66.083 C 132.833 50.729,132.796 38.167,132.750 38.167 C 132.704 38.167,132.667 50.685,132.667 65.986 M211.027 38.802 L 211.053 39.417 211.141 38.833 L 211.228 38.250 211.329 38.917 L 211.431 39.583 211.508 38.907 C 211.572 38.350,211.535 38.228,211.293 38.209 C 211.058 38.192,211.005 38.309,211.027 38.802 M288.161 39.244 C 288.300 39.411,288.292 39.490,288.132 39.554 C 287.967 39.620,287.966 39.643,288.125 39.654 C 288.240 39.661,288.333 39.739,288.333 39.828 C 288.333 39.917,288.202 39.943,288.042 39.887 C 287.806 39.804,287.789 39.827,287.954 40.005 C 288.123 40.187,288.218 40.172,288.496 39.920 C 288.929 39.528,288.920 39.458,288.403 39.218 C 288.049 39.054,288.008 39.058,288.161 39.244 M132.283 39.723 C 132.236 39.846,132.264 40.053,132.346 40.182 C 132.454 40.353,132.496 40.292,132.497 39.958 C 132.500 39.461,132.418 39.371,132.283 39.723 M334.490 40.224 C 334.604 40.337,334.592 40.478,334.454 40.654 C 334.274 40.886,334.284 40.890,334.542 40.688 C 334.902 40.406,334.922 40.056,334.578 40.056 C 334.406 40.056,334.377 40.111,334.490 40.224 M257.167 46.917 C 257.167 51.387,257.223 53.651,257.333 53.583 C 257.440 53.517,257.500 51.113,257.500 46.917 C 257.500 42.721,257.440 40.316,257.333 40.250 C 257.223 40.182,257.167 42.446,257.167 46.917 M264.833 40.502 C 264.478 40.617,264.508 40.633,265.041 40.610 C 265.385 40.595,265.666 40.527,265.666 40.458 C 265.667 40.307,265.390 40.321,264.833 40.502 M137.167 43.500 C 137.167 43.811,137.211 43.856,137.367 43.700 C 137.522 43.544,137.522 43.456,137.367 43.300 C 137.211 43.144,137.167 43.189,137.167 43.500 M20.566 43.736 C 20.516 43.866,20.502 44.184,20.535 44.444 C 20.584 44.830,20.610 44.786,20.677 44.208 C 20.761 43.480,20.724 43.323,20.566 43.736 M137.207 71.532 C 137.185 86.537,137.223 98.848,137.292 98.891 C 137.405 98.961,137.404 80.179,137.290 54.083 C 137.267 48.675,137.229 56.527,137.207 71.532 M287.114 44.838 C 286.874 45.071,286.857 45.160,287.030 45.260 C 287.151 45.330,287.195 45.326,287.128 45.252 C 287.060 45.177,287.135 45.021,287.294 44.905 C 287.453 44.789,287.545 44.660,287.500 44.618 C 287.454 44.577,287.280 44.676,287.114 44.838 M293.081 69.500 C 293.081 82.379,293.101 87.648,293.125 81.208 C 293.149 74.769,293.149 64.231,293.125 57.792 C 293.101 51.352,293.081 56.621,293.081 69.500 M270.167 48.000 L 269.417 48.117 270.302 48.142 C 270.855 48.157,271.148 48.104,271.083 48.000 C 271.027 47.908,270.966 47.845,270.948 47.858 C 270.931 47.872,270.579 47.936,270.167 48.000 M279.281 48.119 C 280.310 48.172,280.489 48.227,280.553 48.510 C 280.612 48.771,280.623 48.761,280.606 48.461 C 280.585 48.105,280.510 48.083,279.333 48.071 L 278.083 48.058 279.281 48.119 M286.101 50.264 C 285.928 50.715,285.979 50.892,286.224 50.689 C 286.347 50.586,286.497 50.552,286.557 50.613 C 286.617 50.673,286.667 50.627,286.667 50.510 C 286.667 50.393,286.558 50.339,286.425 50.390 C 286.264 50.452,286.214 50.403,286.276 50.242 C 286.327 50.109,286.331 50.000,286.286 50.000 C 286.240 50.000,286.157 50.119,286.101 50.264 M269.319 51.719 C 269.394 51.794,269.747 51.831,270.103 51.800 L 270.750 51.743 269.966 51.663 C 269.535 51.618,269.244 51.644,269.319 51.719 M278.875 51.788 C 279.219 51.824,279.781 51.824,280.125 51.788 C 280.469 51.752,280.188 51.723,279.500 51.723 C 278.813 51.723,278.531 51.752,278.875 51.788 M274.125 55.122 C 274.515 55.157,275.152 55.157,275.542 55.122 C 275.931 55.087,275.612 55.058,274.833 55.058 C 274.054 55.058,273.735 55.087,274.125 55.122 M261.442 55.472 C 261.290 55.640,261.216 55.827,261.277 55.889 C 261.339 55.950,261.297 56.000,261.185 56.000 C 261.072 56.000,261.027 56.075,261.083 56.167 C 261.140 56.258,261.075 56.333,260.939 56.333 C 260.803 56.333,260.657 56.202,260.615 56.042 C 260.565 55.853,260.532 55.903,260.519 56.186 C 260.500 56.612,260.612 56.656,261.370 56.521 C 261.436 56.510,261.442 56.369,261.383 56.208 C 261.290 55.953,261.327 55.958,261.677 56.250 C 261.903 56.438,261.989 56.468,261.874 56.318 C 261.761 56.172,261.725 55.997,261.793 55.929 C 261.861 55.861,261.842 55.821,261.750 55.839 C 261.354 55.919,261.302 55.811,261.583 55.500 C 261.749 55.317,261.847 55.167,261.802 55.167 C 261.756 55.167,261.594 55.304,261.442 55.472 M275.042 55.457 C 273.504 55.530,273.456 55.833,274.982 55.833 C 275.850 55.833,276.155 55.772,276.227 55.583 C 276.280 55.446,276.306 55.348,276.286 55.366 C 276.266 55.385,275.706 55.425,275.042 55.457 M257.167 55.849 C 257.167 55.921,257.250 56.032,257.351 56.094 C 257.480 56.174,257.467 56.252,257.309 56.352 C 257.176 56.436,257.160 56.496,257.271 56.497 C 257.468 56.500,257.860 56.107,257.790 55.978 C 257.768 55.937,257.894 56.056,258.069 56.243 C 258.351 56.543,258.376 56.547,258.278 56.278 C 258.217 56.110,258.167 55.909,258.167 55.831 C 258.167 55.753,257.942 55.695,257.667 55.703 C 257.392 55.711,257.167 55.777,257.167 55.849 M218.250 56.115 C 221.112 56.234,223.962 56.239,223.891 56.125 C 223.849 56.056,222.299 56.015,220.448 56.033 C 218.598 56.051,217.608 56.088,218.250 56.115 M249.408 56.181 C 249.150 56.598,249.737 56.672,252.929 56.625 L 256.250 56.576 252.875 56.538 C 250.810 56.515,249.500 56.437,249.500 56.337 C 249.500 56.237,250.817 56.155,252.875 56.125 L 256.250 56.076 252.885 56.038 C 250.603 56.012,249.484 56.058,249.408 56.181 M48.093 56.479 C 48.163 56.734,48.141 56.837,48.029 56.768 C 47.934 56.709,47.802 56.749,47.736 56.856 C 47.660 56.978,47.687 57.007,47.808 56.933 C 47.915 56.866,48.002 56.910,48.005 57.032 C 48.008 57.166,48.075 57.138,48.180 56.958 C 48.297 56.757,48.293 56.576,48.167 56.375 C 48.012 56.128,48.001 56.144,48.093 56.479 M218.792 56.624 C 219.731 56.654,221.269 56.654,222.208 56.624 C 223.148 56.595,222.379 56.570,220.500 56.570 C 218.621 56.570,217.852 56.595,218.792 56.624 M285.458 56.782 C 285.298 56.823,285.167 56.969,285.167 57.105 C 285.167 57.242,285.107 57.316,285.035 57.271 C 284.962 57.226,284.892 57.329,284.879 57.498 C 284.867 57.668,284.974 57.852,285.118 57.907 C 285.316 57.983,285.337 57.956,285.204 57.795 C 284.959 57.500,285.346 57.000,285.820 57.000 C 286.022 57.000,286.140 56.925,286.083 56.833 C 285.976 56.660,285.937 56.656,285.458 56.782 M191.669 57.391 C 191.671 57.599,191.723 57.673,191.794 57.567 C 191.862 57.466,192.027 57.348,192.162 57.304 C 192.335 57.249,192.298 57.196,192.037 57.128 C 191.738 57.050,191.667 57.101,191.669 57.391 M224.633 57.113 C 224.808 57.183,224.805 57.269,224.615 57.558 C 224.397 57.891,224.410 57.918,224.799 57.942 C 225.029 57.956,225.150 57.919,225.067 57.859 C 224.845 57.698,224.806 57.333,225.010 57.333 C 225.107 57.333,225.140 57.258,225.083 57.167 C 225.027 57.075,224.854 57.006,224.698 57.013 C 224.512 57.022,224.490 57.056,224.633 57.113 M317.894 57.625 C 317.908 57.808,317.808 57.908,317.625 57.894 C 317.243 57.863,317.256 57.947,317.669 58.168 C 317.927 58.306,317.995 58.298,317.961 58.132 C 317.936 58.014,318.014 57.936,318.132 57.961 C 318.298 57.995,318.306 57.927,318.168 57.669 C 317.947 57.256,317.863 57.243,317.894 57.625 M260.500 58.232 C 260.500 58.574,260.565 58.813,260.644 58.764 C 260.723 58.715,260.767 58.479,260.741 58.239 C 260.665 57.552,260.500 57.547,260.500 58.232 M223.862 76.167 C 223.875 86.204,223.940 93.892,224.006 93.250 C 224.194 91.418,224.188 58.458,224.000 58.167 C 223.895 58.005,223.847 64.332,223.862 76.167 M248.414 78.333 C 248.414 89.379,248.434 93.898,248.458 88.375 C 248.483 82.852,248.483 73.815,248.458 68.292 C 248.434 62.769,248.414 67.287,248.414 78.333 M350.341 59.492 C 350.208 59.576,350.040 59.608,349.968 59.564 C 349.896 59.519,349.881 59.597,349.935 59.737 C 350.021 59.962,350.061 59.963,350.280 59.744 C 350.416 59.608,350.607 59.547,350.706 59.608 C 350.812 59.673,350.836 59.640,350.766 59.526 C 350.625 59.297,350.645 59.299,350.341 59.492 M107.180 60.198 C 107.173 60.445,107.241 60.693,107.331 60.749 C 107.429 60.809,107.452 60.735,107.386 60.565 C 107.304 60.350,107.336 60.313,107.513 60.416 C 107.644 60.492,107.694 60.492,107.626 60.417 C 107.558 60.342,107.596 60.161,107.710 60.015 C 107.890 59.784,107.881 59.778,107.641 59.965 C 107.416 60.141,107.350 60.141,107.279 59.965 C 107.232 59.847,107.187 59.952,107.180 60.198 M349.787 60.250 C 349.879 60.433,349.919 60.683,349.876 60.804 C 349.811 60.986,349.858 60.987,350.141 60.811 C 350.330 60.693,350.470 60.592,350.451 60.588 C 350.432 60.583,350.237 60.431,350.017 60.248 C 349.619 59.917,349.618 59.917,349.787 60.250 M192.338 60.271 C 192.328 60.639,192.791 60.875,193.116 60.668 C 193.387 60.496,193.379 60.485,193.041 60.556 C 192.803 60.607,192.607 60.534,192.505 60.359 C 192.416 60.208,192.341 60.168,192.338 60.271 M320.500 80.167 C 320.500 91.197,320.540 100.182,320.590 100.133 C 320.701 100.022,320.691 60.303,320.580 60.191 C 320.536 60.147,320.500 69.136,320.500 80.167 M346.081 79.667 C 346.081 90.438,346.101 94.844,346.125 89.458 C 346.149 84.073,346.149 75.260,346.125 69.875 C 346.101 64.490,346.081 68.896,346.081 79.667 M321.255 60.492 C 321.194 60.591,321.064 60.623,320.967 60.563 C 320.868 60.502,320.822 60.549,320.862 60.670 C 320.966 60.981,321.645 61.056,321.601 60.751 C 321.550 60.405,321.385 60.281,321.255 60.492 M65.667 60.740 C 65.667 60.872,65.741 61.026,65.831 61.082 C 65.929 61.143,65.952 61.068,65.887 60.899 C 65.799 60.669,65.848 60.632,66.138 60.708 C 66.337 60.760,66.542 60.734,66.593 60.651 C 66.644 60.568,66.457 60.500,66.177 60.500 C 65.844 60.500,65.667 60.583,65.667 60.740 M194.238 60.920 C 194.580 61.179,194.772 61.138,194.590 60.844 C 194.530 60.747,194.354 60.669,194.198 60.672 C 193.951 60.677,193.956 60.707,194.238 60.920 M210.583 61.002 C 210.524 61.187,210.395 61.288,210.296 61.227 C 210.188 61.160,210.163 61.193,210.235 61.309 C 210.301 61.416,210.244 61.545,210.107 61.597 C 209.893 61.679,209.897 61.733,210.138 61.986 C 210.291 62.148,210.468 62.254,210.530 62.221 C 210.593 62.188,210.691 62.237,210.748 62.331 C 210.806 62.424,210.942 62.499,211.052 62.497 C 211.171 62.496,211.151 62.430,211.000 62.331 C 210.778 62.185,210.778 62.148,211.000 62.003 C 211.340 61.779,211.546 61.791,211.401 62.026 C 211.324 62.150,211.355 62.173,211.489 62.090 C 211.834 61.877,211.423 61.607,211.054 61.805 C 210.651 62.020,210.599 61.084,211.000 60.830 C 211.215 60.694,211.211 60.671,210.970 60.669 C 210.815 60.668,210.641 60.818,210.583 61.002 M52.113 60.958 C 54.330 60.984,58.005 60.984,60.280 60.958 C 62.555 60.932,60.742 60.911,56.250 60.911 C 51.758 60.910,49.897 60.932,52.113 60.958 M104.625 61.623 C 105.106 61.657,105.894 61.657,106.375 61.623 C 106.856 61.589,106.462 61.562,105.500 61.562 C 104.537 61.562,104.144 61.589,104.625 61.623 M345.601 62.764 C 345.420 63.235,345.485 98.500,345.667 98.500 C 345.777 98.500,345.833 92.389,345.833 80.500 C 345.833 70.600,345.804 62.500,345.768 62.500 C 345.732 62.500,345.657 62.619,345.601 62.764 M71.793 64.277 C 71.908 64.324,71.953 64.442,71.892 64.540 C 71.829 64.642,71.860 64.670,71.964 64.606 C 72.064 64.544,72.224 64.626,72.318 64.788 C 72.413 64.951,72.492 65.001,72.495 64.901 C 72.501 64.682,71.954 64.161,71.737 64.180 C 71.652 64.187,71.678 64.231,71.793 64.277 M71.867 65.642 C 71.695 65.752,71.704 65.823,71.913 65.997 C 72.137 66.183,72.158 66.171,72.059 65.913 C 71.973 65.690,72.000 65.647,72.164 65.748 C 72.311 65.839,72.345 65.820,72.266 65.692 C 72.126 65.466,72.142 65.468,71.867 65.642 M20.705 68.333 C 20.705 68.654,20.740 68.785,20.782 68.625 C 20.823 68.465,20.823 68.202,20.782 68.042 C 20.740 67.881,20.705 68.012,20.705 68.333 M72.833 68.674 C 73.063 68.878,73.229 69.115,73.204 69.201 C 73.179 69.287,73.235 69.311,73.329 69.253 C 73.579 69.098,73.554 69.058,72.958 68.664 L 72.417 68.304 72.833 68.674 M20.500 70.917 C 20.500 71.360,20.553 71.670,20.617 71.605 C 20.740 71.482,20.706 70.317,20.576 70.187 C 20.534 70.145,20.500 70.474,20.500 70.917 M107.778 77.778 C 107.525 78.031,107.655 78.551,107.917 78.333 C 108.054 78.219,108.167 78.023,108.167 77.896 C 108.167 77.653,107.964 77.592,107.778 77.778 M132.241 92.181 C 132.179 92.281,132.213 92.446,132.315 92.548 C 132.451 92.684,132.500 92.636,132.500 92.367 C 132.500 91.964,132.413 91.902,132.241 92.181 M72.917 93.924 C 72.538 94.244,72.492 94.334,72.730 94.298 C 72.902 94.272,73.155 94.081,73.292 93.875 C 73.612 93.393,73.533 93.403,72.917 93.924 M131.833 94.834 C 131.833 94.957,131.702 95.207,131.542 95.391 C 131.338 95.624,131.325 95.679,131.500 95.573 C 131.637 95.490,131.825 95.419,131.917 95.415 C 132.008 95.412,132.057 95.261,132.026 95.080 C 131.956 94.681,131.833 94.524,131.833 94.834 M159.407 97.016 C 159.345 97.116,159.415 97.320,159.564 97.468 C 159.730 97.635,159.833 97.663,159.833 97.541 C 159.833 97.426,159.948 97.388,160.111 97.450 C 160.297 97.522,160.349 97.493,160.268 97.362 C 160.201 97.254,159.997 97.167,159.814 97.167 C 159.630 97.167,159.527 97.092,159.583 97.000 C 159.640 96.908,159.649 96.833,159.603 96.833 C 159.557 96.833,159.469 96.916,159.407 97.016 M321.588 98.659 C 321.534 98.747,321.360 98.774,321.203 98.720 C 320.973 98.641,320.983 98.678,321.250 98.908 C 321.529 99.147,321.536 99.179,321.292 99.102 C 321.131 99.052,321.000 99.074,321.000 99.152 C 321.000 99.231,321.142 99.332,321.316 99.377 C 321.540 99.436,321.618 99.381,321.587 99.188 C 321.563 99.039,321.617 98.823,321.708 98.708 C 321.800 98.594,321.832 98.500,321.780 98.500 C 321.729 98.500,321.642 98.572,321.588 98.659 M20.564 98.907 C 20.513 99.039,20.501 99.283,20.537 99.449 C 20.578 99.637,20.635 99.547,20.689 99.208 C 20.780 98.641,20.721 98.498,20.564 98.907 M350.445 98.904 C 350.386 99.057,350.217 99.107,349.969 99.046 C 349.757 98.994,349.625 98.998,349.677 99.055 C 349.728 99.112,349.916 99.182,350.093 99.209 C 350.271 99.237,350.529 99.325,350.667 99.404 C 350.863 99.518,350.875 99.503,350.721 99.337 C 350.614 99.221,350.566 99.023,350.614 98.896 C 350.663 98.770,350.665 98.667,350.619 98.667 C 350.573 98.667,350.495 98.773,350.445 98.904 M249.000 99.000 C 249.000 99.092,249.075 99.167,249.167 99.167 C 249.258 99.167,249.333 99.246,249.333 99.343 C 249.333 99.440,249.258 99.473,249.167 99.417 C 249.075 99.360,249.000 99.393,249.000 99.490 C 249.000 99.587,249.112 99.667,249.250 99.667 C 249.406 99.667,249.500 99.509,249.500 99.250 C 249.500 98.991,249.406 98.833,249.250 98.833 C 249.112 98.833,249.000 98.908,249.000 99.000 M69.768 99.529 C 69.827 99.625,69.775 99.766,69.651 99.843 C 69.528 99.919,69.468 100.023,69.518 100.074 C 69.569 100.124,69.771 99.994,69.968 99.785 C 70.319 99.411,70.319 99.403,69.992 99.379 C 69.798 99.364,69.704 99.426,69.768 99.529 M128.182 99.768 C 127.853 100.095,127.831 100.167,128.062 100.167 C 128.217 100.167,128.387 100.055,128.439 99.918 C 128.492 99.781,128.601 99.710,128.682 99.760 C 128.763 99.810,128.785 99.734,128.730 99.592 C 128.676 99.450,128.620 99.341,128.607 99.351 C 128.594 99.361,128.403 99.548,128.182 99.768 M349.667 99.685 C 349.667 99.747,349.854 99.787,350.083 99.774 C 350.312 99.761,350.500 99.695,350.500 99.627 C 350.500 99.559,350.313 99.519,350.083 99.538 C 349.854 99.557,349.667 99.623,349.667 99.685 M20.503 100.276 C 20.500 100.566,20.572 100.617,20.871 100.539 C 21.132 100.470,21.169 100.418,20.996 100.362 C 20.861 100.319,20.695 100.201,20.628 100.100 C 20.556 99.993,20.504 100.067,20.503 100.276 M107.178 100.562 C 107.168 100.989,107.197 101.016,107.442 100.812 C 107.594 100.686,107.744 100.602,107.776 100.625 C 107.807 100.648,107.833 100.629,107.833 100.583 C 107.833 100.158,107.798 100.127,107.634 100.409 C 107.447 100.733,107.444 100.733,107.318 100.409 C 107.211 100.138,107.188 100.163,107.178 100.562 M320.938 100.367 C 320.989 100.450,321.117 100.486,321.224 100.448 C 321.330 100.410,321.546 100.445,321.705 100.526 C 321.923 100.639,321.970 100.616,321.900 100.432 C 321.846 100.292,321.603 100.196,321.326 100.203 C 321.061 100.211,320.887 100.285,320.938 100.367 M248.226 100.538 C 248.181 100.612,248.055 100.619,247.947 100.554 C 247.833 100.486,247.846 100.554,247.977 100.716 C 248.218 101.013,248.584 100.937,248.394 100.629 C 248.322 100.513,248.361 100.497,248.501 100.584 C 248.670 100.689,248.634 100.790,248.342 101.027 C 248.134 101.195,248.046 101.333,248.148 101.333 C 248.359 101.333,249.000 100.733,249.000 100.536 C 249.000 100.364,248.333 100.366,248.226 100.538 M126.013 100.792 C 126.004 101.044,126.096 101.166,126.292 101.164 C 126.472 101.163,126.513 101.115,126.400 101.039 C 126.299 100.972,126.174 100.804,126.121 100.667 C 126.058 100.500,126.022 100.541,126.013 100.792 M67.584 100.999 C 67.418 101.183,67.336 101.333,67.403 101.333 C 67.578 101.333,68.054 100.831,67.963 100.741 C 67.921 100.699,67.751 100.815,67.584 100.999 M170.399 101.245 C 170.419 101.380,170.499 101.549,170.577 101.620 C 170.656 101.692,170.666 101.656,170.600 101.542 C 170.534 101.427,170.560 101.333,170.657 101.333 C 170.754 101.333,170.833 101.258,170.833 101.167 C 170.833 101.075,170.727 101.000,170.598 101.000 C 170.469 101.000,170.379 101.110,170.399 101.245 M333.083 101.451 C 337.255 101.569,341.000 101.572,341.000 101.458 C 341.000 101.390,338.844 101.349,336.208 101.368 C 333.573 101.388,332.167 101.425,333.083 101.451 M354.666 101.458 C 354.666 101.527,356.035 101.564,357.708 101.541 C 363.397 101.461,363.927 101.403,359.292 101.368 C 356.748 101.349,354.667 101.390,354.666 101.458 M301.625 101.618 C 301.831 101.657,302.169 101.657,302.375 101.618 C 302.581 101.578,302.412 101.545,302.000 101.545 C 301.587 101.545,301.419 101.578,301.625 101.618 " stroke="none" fill="#64a4f4" fill-rule="evenodd"></path><path id="path2" d="M107.245 48.917 C 107.245 54.967,107.266 57.417,107.292 54.363 C 107.317 51.308,107.317 46.358,107.292 43.363 C 107.266 40.367,107.245 42.867,107.245 48.917 M260.539 57.167 C 260.539 57.487,260.573 57.619,260.615 57.458 C 260.657 57.298,260.657 57.035,260.615 56.875 C 260.573 56.715,260.539 56.846,260.539 57.167 M51.375 60.625 C 54.010 60.651,58.323 60.651,60.958 60.625 C 63.594 60.599,61.438 60.578,56.167 60.578 C 50.896 60.578,48.740 60.599,51.375 60.625 M104.625 60.623 C 105.106 60.657,105.894 60.657,106.375 60.623 C 106.856 60.589,106.462 60.562,105.500 60.562 C 104.537 60.562,104.144 60.589,104.625 60.623 M197.375 60.625 C 199.644 60.651,203.356 60.651,205.625 60.625 C 207.894 60.599,206.037 60.577,201.500 60.577 C 196.963 60.577,195.106 60.599,197.375 60.625 M107.245 89.500 C 107.245 95.412,107.266 97.831,107.292 94.875 C 107.317 91.919,107.317 87.081,107.292 84.125 C 107.266 81.169,107.245 83.587,107.245 89.500 " stroke="none" fill="#689cf4" fill-rule="evenodd"></path><path id="path3" d="M107.245 48.917 C 107.245 54.967,107.266 57.417,107.292 54.363 C 107.317 51.308,107.317 46.358,107.292 43.363 C 107.266 40.367,107.245 42.867,107.245 48.917 M260.539 57.167 C 260.539 57.487,260.573 57.619,260.615 57.458 C 260.657 57.298,260.657 57.035,260.615 56.875 C 260.573 56.715,260.539 56.846,260.539 57.167 M51.375 60.625 C 54.010 60.651,58.323 60.651,60.958 60.625 C 63.594 60.599,61.438 60.578,56.167 60.578 C 50.896 60.578,48.740 60.599,51.375 60.625 M104.625 60.623 C 105.106 60.657,105.894 60.657,106.375 60.623 C 106.856 60.589,106.462 60.562,105.500 60.562 C 104.537 60.562,104.144 60.589,104.625 60.623 M197.375 60.625 C 199.644 60.651,203.356 60.651,205.625 60.625 C 207.894 60.599,206.037 60.577,201.500 60.577 C 196.963 60.577,195.106 60.599,197.375 60.625 M107.245 89.500 C 107.245 95.412,107.266 97.831,107.292 94.875 C 107.317 91.919,107.317 87.081,107.292 84.125 C 107.266 81.169,107.245 83.587,107.245 89.500 " stroke="none" fill="#689cf4" fill-rule="evenodd"></path><path id="path4" d="M107.245 48.917 C 107.245 54.967,107.266 57.417,107.292 54.363 C 107.317 51.308,107.317 46.358,107.292 43.363 C 107.266 40.367,107.245 42.867,107.245 48.917 M260.539 57.167 C 260.539 57.487,260.573 57.619,260.615 57.458 C 260.657 57.298,260.657 57.035,260.615 56.875 C 260.573 56.715,260.539 56.846,260.539 57.167 M51.375 60.625 C 54.010 60.651,58.323 60.651,60.958 60.625 C 63.594 60.599,61.438 60.578,56.167 60.578 C 50.896 60.578,48.740 60.599,51.375 60.625 M104.625 60.623 C 105.106 60.657,105.894 60.657,106.375 60.623 C 106.856 60.589,106.462 60.562,105.500 60.562 C 104.537 60.562,104.144 60.589,104.625 60.623 M197.375 60.625 C 199.644 60.651,203.356 60.651,205.625 60.625 C 207.894 60.599,206.037 60.577,201.500 60.577 C 196.963 60.577,195.106 60.599,197.375 60.625 M107.245 89.500 C 107.245 95.412,107.266 97.831,107.292 94.875 C 107.317 91.919,107.317 87.081,107.292 84.125 C 107.266 81.169,107.245 83.587,107.245 89.500 " stroke="none" fill="#689cf4" fill-rule="evenodd"></path></g></svg>